<svg width="161" height="161" viewBox="0 0 161 161" fill="none" xmlns="http://www.w3.org/2000/svg">
<path fill-rule="evenodd" clip-rule="evenodd" d="M34.3188 77.4586C38.5559 83.1228 44.2813 86.1335 51.2451 86.8802C53.7916 87.1529 53.7975 87.0964 53.7981 89.6251C53.7981 92.1824 53.7289 94.742 53.8265 97.2949C53.8764 98.6021 53.367 98.8745 52.1958 98.7956C42.9636 98.17 34.9012 94.8832 28.2159 88.3925C27.8402 88.0281 27.5586 87.4239 26.8524 87.5821C26.3897 87.3637 26.1458 86.9219 25.8105 86.5715C25.333 85.8935 24.8211 85.2425 24.2918 84.6036C22.743 82.4114 21.1892 80.2219 20.0192 77.7925C16.2469 72.4156 10.8967 69.6402 4.58858 68.4725C3.3133 68.2367 1.56086 68.5782 0.844316 67.8502C2.92659e-05 66.9924 0.606983 65.2381 0.575985 63.8745C0.53309 61.9992 0.666629 60.1145 0.53309 58.2479C0.426321 56.7571 0.897231 56.3355 2.38025 56.4327C11.4611 57.0254 19.3346 60.3573 25.9644 66.6053C26.3702 66.9879 26.7982 67.3475 27.2159 67.7174C27.9664 67.9662 28.4611 68.5246 28.9276 69.1206C29.273 69.6881 29.7227 70.1767 30.1285 70.6999C31.6482 72.8774 33.2384 75.01 34.3188 77.4586Z" fill="#2A54FE"/>
<path fill-rule="evenodd" clip-rule="evenodd" d="M63.0488 77.2716C63.0488 73.0849 63.0844 68.8972 63.0254 64.7116C63.0091 63.5806 63.3056 63.2032 64.4876 63.2309C67.9222 63.3118 71.3611 63.2213 74.7973 63.2675C81.6573 63.3597 85.4007 69.8507 81.9596 75.7606C81.4741 76.5939 81.6934 76.8801 82.244 77.4094C84.866 79.9288 85.5451 82.9984 84.2111 86.312C82.8684 89.6466 80.1656 91.2917 76.5756 91.3339C72.5141 91.3807 68.4513 91.3098 64.3903 91.3691C63.3305 91.3848 63.0103 91.0916 63.0249 90.0194C63.0828 85.7702 63.0488 81.5208 63.0488 77.2716ZM130.276 71.2652C131.839 71.2652 133.403 71.2721 134.966 71.2614C135.562 71.2576 136.234 71.2706 136.022 72.0972C135.667 73.4885 137.052 75.2615 135.065 76.3209C134.671 76.5308 135.154 76.9804 135.277 77.3012C136.576 80.6774 136.339 83.8999 134.338 86.9541C134.052 87.3912 133.703 87.665 134.189 88.3608C137.763 93.4773 135.567 100.044 129.588 102.339C123.532 104.665 116.64 100.5 116.074 94.2394C115.972 93.1141 116.258 92.7855 117.324 92.8946C118.009 92.965 118.7 92.9654 119.385 92.8958C120.856 92.744 121.701 93.0076 122.299 94.7197C123.3 97.5866 127.518 98.0098 129.457 95.6718C130.784 94.0726 130.33 92.3877 128.398 91.6866C127.558 91.3817 126.694 91.3619 125.815 91.3367C120.375 91.1799 116.179 86.9735 115.985 81.5139C115.803 76.3548 119.73 71.8889 125.031 71.3735C126.764 71.2057 128.526 71.3474 130.275 71.3474C130.275 71.3201 130.275 71.2921 130.276 71.2652ZM160.866 91.3444C158.914 91.3444 156.995 91.3114 155.078 91.3597C154.257 91.3803 154.044 90.7907 153.724 90.2789C152.304 88.007 150.892 85.7295 149.287 83.1476C147.798 85.541 146.348 87.7342 145.053 90.0159C144.444 91.0888 143.727 91.4545 142.526 91.3723C140.929 91.2628 139.319 91.3453 137.441 91.3453C140.061 87.135 142.509 83.109 145.067 79.1529C145.737 78.1168 145.774 77.4145 145.083 76.3526C142.533 72.4355 140.113 68.4349 137.443 64.1417C139.698 64.1417 141.711 64.1292 143.725 64.1486C144.419 64.1555 144.577 64.8094 144.863 65.2593C146.329 67.5663 147.772 69.8877 149.291 72.3134C150.808 69.8816 152.272 67.6436 153.609 65.3318C154.157 64.3861 154.794 64.0548 155.857 64.1117C157.464 64.1973 159.08 64.1342 160.66 64.1342C161 64.8331 160.484 65.1656 160.251 65.544C158.027 69.1531 155.822 72.7759 153.502 76.3227C152.824 77.359 152.789 78.081 153.472 79.125C155.723 82.5692 157.868 86.0825 160.031 89.583C160.345 90.0915 160.838 90.5292 160.866 91.3444ZM95.8894 81.373C95.8894 78.5614 95.9959 75.7435 95.8469 72.9395C95.7664 71.4297 96.3162 71.0314 97.6323 71.2697C99.0878 71.5333 100.72 70.5948 102.042 71.9408C102.171 72.0727 102.725 71.7959 103.079 71.6955C108.603 70.1306 114.025 72.9168 113.742 79.8414C113.607 83.1481 113.68 86.4651 113.74 89.7762C113.76 90.9079 113.582 91.3958 112.245 91.3854C107.899 91.3508 107.898 91.4183 107.898 87.0635C107.898 84.6269 107.913 82.1894 107.894 79.7525C107.877 77.5797 106.745 76.228 104.931 76.1541C103.056 76.0776 101.762 77.4429 101.724 79.7195C101.669 83.0933 101.678 86.4686 101.728 89.8421C101.743 90.8715 101.64 91.3784 100.357 91.3842C95.889 91.4053 95.8893 91.4673 95.8893 86.9974L95.8894 81.373Z" fill="black"/>
<path fill-rule="evenodd" clip-rule="evenodd" d="M35.023 61.6631C40.3481 58.2368 46.2409 56.722 52.508 56.4322C53.4437 56.3893 53.8381 56.6419 53.8188 57.667C53.76 60.785 53.7822 63.9048 53.8085 67.0241C53.8151 67.7929 53.5959 68.1254 52.7607 68.1527C49.4905 68.2582 46.3827 69.1282 43.3475 70.2935C42.4223 69.5103 41.9503 68.393 41.2608 67.4361C39.9599 65.6322 38.2787 64.2628 36.4428 63.0568C35.8771 62.6849 35.1972 62.4321 35.023 61.6631ZM19.0675 93.6554C13.7954 97.064 7.89936 98.3635 1.742 98.7973C0.85638 98.8593 0.53764 98.5523 0.549538 97.6459C0.591651 94.5282 0.596347 91.409 0.546877 88.2916C0.531691 87.3407 0.795012 86.9852 1.79523 86.9773C5.01864 86.9509 8.05763 86.0447 11.0191 84.8407C11.9667 85.256 12.1919 86.2505 12.7184 86.9956C14.0887 88.9345 15.522 90.793 17.6007 92.0524C18.227 92.4319 18.8826 92.8441 19.0675 93.6554Z" fill="#2A54FE"/>
<path fill-rule="evenodd" clip-rule="evenodd" d="M87.4416 81.2142C87.4416 78.346 87.4849 75.4767 87.4187 72.6095C87.3944 71.5357 87.7487 71.2589 88.7996 71.2363C93.2636 71.1407 93.2626 71.1042 93.2626 75.6358C93.2626 80.3749 93.2174 85.1145 93.2939 89.8526C93.314 91.0867 92.9657 91.3857 91.7572 91.3774C87.4419 91.3471 87.4416 91.3959 87.4416 87.0138V81.2142Z" fill="#010101"/>
<path fill-rule="evenodd" clip-rule="evenodd" d="M93.2651 66.2544C93.2651 69.1455 93.2651 69.1455 89.7562 69.1448C87.4359 69.1445 87.4359 69.1445 87.437 65.5853C87.4379 63.2541 87.4379 63.2541 91.1737 63.256C93.2651 63.2569 93.2651 63.2569 93.2651 66.2544Z" fill="#040404"/>
<path fill-rule="evenodd" clip-rule="evenodd" d="M19.0675 93.6553C15.5439 91.4852 12.7244 88.6715 11.0191 84.8405L12.5436 84.1197C13.8989 85.7823 14.8964 87.7101 16.493 89.2035C17.852 90.4739 19.5343 91.28 20.9127 92.5048C20.4191 93.0825 19.7745 93.4186 19.0675 93.6553ZM35.023 61.6631C38.0693 63.4119 40.8187 65.4773 42.5938 68.6168C42.9 69.1583 43.2844 69.6491 43.3473 70.2935C42.8453 70.5473 42.3433 70.8007 41.8416 71.054C40.0334 68.0241 37.7665 65.4427 34.6787 63.6432C34.2247 63.3795 33.6486 63.088 33.9243 62.3521C34.2014 61.9803 34.5607 61.74 35.023 61.6631Z" fill="#2952F7"/>
<path fill-rule="evenodd" clip-rule="evenodd" d="M30.6359 64.7171C30.8761 64.3223 31.2268 64.0708 31.6613 63.9287C32.226 63.5915 32.8164 63.5137 33.4312 63.7731C36.6147 65.1136 39.0962 67.2332 40.6655 70.3469C40.8834 70.7799 41.1049 71.2545 40.7185 71.7302C40.3431 71.9758 39.9674 72.2222 39.5924 72.4675C38.8992 72.0808 38.6614 71.3273 38.2073 70.7483C36.6234 68.7261 34.8678 66.9235 32.4255 65.9119C31.7706 65.6404 30.9398 65.5479 30.6359 64.7171Z" fill="#274EEB"/>
<path fill-rule="evenodd" clip-rule="evenodd" d="M40.7184 71.73C39.0262 67.5889 36.2142 64.7481 31.6612 63.9285C32.3305 63.2812 32.9972 62.6299 33.9242 62.3521C35.9092 64.0115 38.1846 65.328 39.8387 67.3786C40.7307 68.4845 41.8055 69.4847 41.8415 71.054L40.7184 71.73Z" fill="#2850F1"/>
<path fill-rule="evenodd" clip-rule="evenodd" d="M28.6973 69.22C28.0783 68.8422 27.5756 68.3502 27.216 67.7174C27.5689 67.4199 27.9219 67.1222 28.2748 66.8252C32.1325 67.1962 34.9896 69.1375 36.9877 72.4049C37.3086 72.9293 37.6349 73.4802 37.3744 74.1468C37.1208 74.6442 36.6976 74.9595 36.2225 75.2184C35.678 75.0807 35.4633 74.6185 35.232 74.1858C33.8128 71.529 31.7191 69.7652 28.6973 69.22Z" fill="#2448D9"/>
<path fill-rule="evenodd" clip-rule="evenodd" d="M23.4965 90.6099C23.2643 91.0174 22.9184 91.275 22.4665 91.3933C22.0523 91.5228 21.6558 91.677 21.193 91.5791C18.001 90.9039 14.2577 86.8594 13.6973 83.4577C13.978 83.0644 14.3758 82.8482 14.8235 82.7065C15.4513 82.8191 15.7542 83.3068 16.0352 83.794C17.5495 86.4206 19.6375 88.4097 22.4332 89.6323C22.8905 89.8322 23.3484 90.0609 23.4965 90.6099Z" fill="#274EEB"/>
<path fill-rule="evenodd" clip-rule="evenodd" d="M13.6974 83.4575C14.1926 84.3215 14.6994 85.179 15.1809 86.0505C16.7856 88.9583 19.3115 90.6037 22.4667 91.3932C22.0509 91.9067 21.5515 92.303 20.9129 92.5048C16.9003 90.9294 14.0874 88.158 12.5439 84.1197C12.9284 83.8985 13.3129 83.6779 13.6974 83.4575Z" fill="#2850F1"/>
<path fill-rule="evenodd" clip-rule="evenodd" d="M26.0957 86.452C26.5823 86.672 26.8315 87.0507 26.8519 87.5829C26.5692 87.8298 26.2863 88.0773 26.0032 88.3248C22.9115 88.5282 20.6972 86.8891 18.8796 84.696C17.9967 83.6308 16.7151 82.6054 17.0948 80.887C17.4207 80.5999 17.7471 80.3125 18.0734 80.0247C19.0368 79.8447 19.1838 80.6877 19.4442 81.233C20.8052 84.0857 23.1573 85.6325 26.0957 86.452Z" fill="#2448DA"/>
<path fill-rule="evenodd" clip-rule="evenodd" d="M30.6359 64.7168C34.6463 66.1153 37.8772 68.4157 39.5923 72.4672C39.2131 72.7421 38.8341 73.0178 38.4555 73.2926C37.8397 73.139 37.615 72.5983 37.3321 72.1299C35.5872 69.2369 33.1727 67.2675 29.7896 66.6175C29.4823 66.5585 29.1972 66.4448 29.0074 66.1716C29.4261 65.5476 29.9615 65.0551 30.6359 64.7168Z" fill="#264CE6"/>
<path fill-rule="evenodd" clip-rule="evenodd" d="M29.0075 66.1719C33.7393 66.4457 36.5043 69.3294 38.4556 73.2927C38.095 73.577 37.7348 73.8622 37.3744 74.1467C35.7829 70.5129 33.0672 68.2266 29.193 67.3443C28.8195 67.259 28.466 67.2037 28.275 66.8252C28.4141 66.4897 28.6496 66.2619 29.0075 66.1719Z" fill="#254AE0"/>
<path fill-rule="evenodd" clip-rule="evenodd" d="M17.0948 80.8867C18.7088 84.9893 21.7383 87.397 26.0034 88.3245C25.8238 88.8851 25.3567 89.1635 24.897 89.4487C23.7575 89.9971 22.864 89.2612 21.9368 88.8391C19.5968 87.7755 17.7642 86.1386 16.5725 83.8346C16.2026 83.1199 15.7515 82.3959 16.3205 81.5687C16.5786 81.3418 16.8365 81.1143 17.0948 80.8867Z" fill="#264AE0"/>
<path fill-rule="evenodd" clip-rule="evenodd" d="M16.3203 81.5688C17.0874 85.5014 19.9371 87.485 23.2897 88.981C23.7947 89.2058 24.3597 89.2958 24.8969 89.4487C24.5377 89.9658 24.0568 90.3355 23.4965 90.6097C19.4943 89.1953 16.7637 86.3847 14.8237 82.7064L16.3203 81.5688Z" fill="#264CE5"/>
<path fill-rule="evenodd" clip-rule="evenodd" d="M26.0958 86.4517C24.1008 86.9556 22.8594 85.5205 21.4286 84.6103C19.7239 83.5259 19.3809 81.4167 18.0732 80.0245C18.5426 79.3517 19.0149 78.6809 19.7031 78.2031C20.4801 79.9233 20.7425 81.9068 22.4378 83.1497C23.1379 83.6634 23.7592 84.2744 24.5969 84.5735C25.3858 84.9688 25.7266 85.7214 26.0958 86.4517Z" fill="#2446D4"/>
<path fill-rule="evenodd" clip-rule="evenodd" d="M28.6973 69.2198C30.4869 68.5236 31.6892 69.7187 32.9133 70.6255C34.4835 71.788 35.4851 73.4235 36.2225 75.2183C35.9452 75.6995 35.6256 76.14 35.1171 76.4057C34.4353 75.9901 34.2239 75.2449 33.913 74.5939C33.0395 72.7673 31.3561 71.8219 29.8201 70.7095C29.2387 70.3687 28.7474 69.9606 28.6973 69.2198Z" fill="#2346D4"/>
<path fill-rule="evenodd" clip-rule="evenodd" d="M24.5969 84.5739C24.1348 85.2068 23.6404 84.7473 23.3207 84.4926C21.2976 82.8795 19.4722 81.1241 19.7032 78.2034C19.8084 78.0666 19.9139 77.9301 20.0193 77.7925C21.972 79.7644 23.1128 82.2851 24.5969 84.5739Z" fill="#2244CF"/>
<path fill-rule="evenodd" clip-rule="evenodd" d="M29.8201 70.7095C32.8969 71.3888 34.2347 73.6855 35.1171 76.4056L34.3188 77.4584C32.4717 75.4406 31.2632 72.9962 29.8201 70.7095Z" fill="#2244CE"/>
<path fill-rule="evenodd" clip-rule="evenodd" d="M72.9417 86.4662C68.8682 86.4662 68.8682 86.4662 68.8682 82.4774C68.8682 79.7111 68.8682 79.7095 71.7284 79.7117C73.1026 79.7124 74.4799 79.656 75.8498 79.7377C77.8815 79.8589 79.3174 81.4098 79.2227 83.2576C79.128 85.1067 77.7431 86.3989 75.7526 86.4612C74.8167 86.4903 73.8786 86.4662 72.9417 86.4662Z" fill="#FEFEFE"/>
<path fill-rule="evenodd" clip-rule="evenodd" d="M68.868 71.4596C68.868 68.1392 68.868 68.1385 72.1304 68.1398C72.9409 68.1401 73.7573 68.0822 74.5597 68.1612C76.4669 68.3494 77.7657 69.8545 77.6824 71.6953C77.6019 73.4662 76.2971 74.7557 74.4192 74.8783C73.7362 74.9226 73.0488 74.8935 72.3632 74.8938C68.868 74.8944 68.868 74.8938 68.868 71.4596ZM125.969 85.516C123.766 85.4881 121.791 83.4877 121.796 81.2893C121.8 79.0214 123.9 77.0071 126.174 77.0877C128.405 77.1665 130.274 79.1576 130.225 81.4012C130.174 83.6422 128.207 85.544 125.969 85.516Z" fill="#FDFDFD"/>
</svg>
