<svg width="81" height="81" viewBox="0 0 81 81" fill="none" xmlns="http://www.w3.org/2000/svg">
<g clip-path="url(#clip0_43_128)">
<path d="M63.3603 0H17.6397C7.89754 0 0 7.89754 0 17.6397V63.3603C0 73.1025 7.89754 81 17.6397 81H63.3603C73.1025 81 81 73.1025 81 63.3603V17.6397C81 7.89754 73.1025 0 63.3603 0Z" fill="#00F0FF"/>
<path d="M37.3808 31.9282H52.5047L67.9765 47.3012C68.9829 48.3011 68.9882 49.9278 67.9868 50.9328L48.145 70.8748H32.5653L37.2755 66.2957L54.569 49.1113L37.495 31.9268" fill="#1B1B1B"/>
<path d="M43.5966 49.073H28.4727L13.0009 33.6998C11.9944 32.6999 11.9893 31.0734 12.9906 30.0682L32.8323 10.125H48.4121L43.7019 14.7042L26.4084 31.8885L43.4824 49.073" fill="#1B1B1B"/>
</g>
<defs>
<clipPath id="clip0_43_128">
<rect width="81" height="81" fill="white"/>
</clipPath>
</defs>
</svg>
