<svg width="81" height="97" viewBox="0 0 81 97" fill="none" xmlns="http://www.w3.org/2000/svg">
<g clip-path="url(#clip0_43_111)">
<path d="M69.9499 47.0122C74.053 41.8382 76.2803 35.4331 76.2697 28.8377C76.2697 12.6135 63.0831 0 46.8145 0H11.0465V3.66943H46.0215C60.3993 3.66943 72.0554 14.7675 72.0554 29.1C72.0641 34.672 70.2665 40.0976 66.9303 44.5682L69.9499 47.0122Z" fill="#55A49F"/>
<path d="M65.9607 43.9747C69.8751 40.0078 72.0657 34.6645 72.0589 29.1002C72.0589 23.4686 69.8149 18.0675 65.8204 14.085C61.826 10.1025 56.4082 7.86468 50.7587 7.86377H20.514V11.5367H51.5448C53.8249 11.5353 56.0829 11.9818 58.1898 12.8507C60.2967 13.7195 62.2113 14.9937 63.824 16.6004C65.4368 18.2071 66.7161 20.1148 67.589 22.2146C68.4618 24.3143 68.9111 26.565 68.9111 28.8379C68.9141 31.3615 68.3618 33.8552 67.2932 36.143C66.2247 38.4309 64.6658 40.4573 62.7264 42.0796L65.9607 43.9747Z" fill="#4A8C89"/>
<path d="M60.1258 41.2062C65.102 39.0384 68.9111 34.3161 68.9111 28.8378C68.9111 21.3091 61.736 15.2061 54.1835 15.2061H27.8761V17.3014H53.9134C60.1466 17.3014 66.2724 22.3516 66.2724 28.5755C66.2724 33.6188 62.2624 37.8958 57.4178 39.3283L60.1258 41.2062Z" fill="#5AABA5"/>
<path d="M0.526367 93.3306H6.31282V97H0.526367V93.3306Z" fill="#4A8C8A"/>
<path d="M6.31287 85.9883H29.4552V88.6083H6.31287V85.9883Z" fill="#5AABA6"/>
<path d="M6.31287 69.7363H31.0343V71.8351H6.31287V69.7363Z" fill="#4B8F8E"/>
<path d="M35.7679 69.7363H51.5482V71.8351H35.7679V69.7363Z" fill="#7CC6C7"/>
<path d="M11.0465 62.394H19.4613V64.4928H11.0465V62.394Z" fill="#5AB5B4"/>
<path d="M24.1951 62.394H51.5448V64.4928H24.1951V62.394Z" fill="#428989"/>
<path d="M33.1362 29.3623H51.0185V31.4611H33.1362V29.3623Z" fill="#549391"/>
<path d="M12.0992 15.2061H22.0931V17.3048H12.0992V15.2061Z" fill="#306563"/>
<path d="M14.7275 23.0693H51.5448V25.1681H14.7275V23.0693Z" fill="#64B9B9"/>
<path d="M5.26013 29.3623H27.8761V31.4611H5.26013V29.3623Z" fill="#7FD6D5"/>
<path d="M11.5729 92.806V96.4754H51.5448C67.8203 96.4754 81 83.855 81 67.6377C81 59.8504 77.8967 52.3819 72.3727 46.8754C66.8488 41.3689 59.3568 38.2754 51.5448 38.2754H25.7741V41.4236H50.7587C57.6636 41.4245 64.2854 44.1595 69.1676 49.0269C74.0498 53.8944 76.7926 60.4957 76.7926 67.3788C76.7926 81.7148 65.1366 92.8094 50.7587 92.8094L11.5729 92.806Z" fill="#55A49F"/>
<path d="M17.8822 46.1387V49.8116H56.2785C58.558 49.8111 60.8153 50.2583 62.9214 51.1275C65.0275 51.9968 66.9412 53.2711 68.5532 54.8777C70.1652 56.4844 71.444 58.3918 72.3164 60.4911C73.1888 62.5904 73.6379 64.8404 73.6379 67.1128C73.6379 71.7022 71.809 76.1038 68.5534 79.349C65.2979 82.5943 60.8825 84.4174 56.2785 84.4174H33.6625V88.6116H55.4786C58.2761 88.6116 61.0461 88.0622 63.6306 86.995C66.2151 85.9277 68.5633 84.3634 70.5413 82.3913C72.5192 80.4193 74.0881 78.0782 75.1583 75.5017C76.2285 72.9252 76.7792 70.1638 76.7787 67.3751C76.7787 61.7435 74.5347 56.3424 70.5403 52.3599C66.5458 48.3774 61.128 46.1396 55.4786 46.1387H17.8822Z" fill="#4A8C89"/>
<path d="M28.9288 54.0059V56.1012H58.6472C64.8803 56.1012 71.0061 61.1514 71.0061 67.3753C71.0061 73.5888 64.8942 78.6494 58.6472 78.6494H0V81.2694H58.9103C66.4629 81.2694 73.6379 75.1664 73.6379 67.6376C73.6379 60.1089 66.4629 54.0059 58.9103 54.0059H28.9288Z" fill="#5AABA5"/>
</g>
<defs>
<clipPath id="clip0_43_111">
<rect width="81" height="97" fill="white"/>
</clipPath>
</defs>
</svg>
