<svg width="137" height="54" viewBox="0 0 137 54" fill="none" xmlns="http://www.w3.org/2000/svg">
<g clip-path="url(#clip0_43_80)">
<path d="M97.6448 39.4788V3.97021H104.722V39.4788H97.6448Z" fill="#F7A600"/>
<path d="M15.1708 50.0267H0V14.5181H14.5614C21.6381 14.5181 25.7607 18.4093 25.7607 24.4923C25.7607 28.4312 23.1121 30.9771 21.2791 31.8253C23.4679 32.8211 26.2678 35.0653 26.2678 39.8047C26.2678 46.4356 21.6381 50.0267 15.1708 50.0267ZM14.0008 20.7027H7.07676V28.8822H13.9992C17.0022 28.8822 18.6824 27.2368 18.6824 24.7909C18.6824 22.3497 17.0037 20.7027 14.0008 20.7027ZM14.4574 35.1161H7.07833V43.8452H14.4606C17.6683 43.8452 19.1926 41.8503 19.1926 39.4552C19.1926 37.0617 17.6651 35.1161 14.4606 35.1161H14.4574ZM47.8524 35.4655V50.0267H40.826V35.4655L29.9306 14.5181H37.6183L44.3896 28.8314L51.0585 14.5181H58.7447L47.8524 35.4655ZM78.8081 50.0267H63.6373V14.5181H78.1971C85.2738 14.5181 89.398 18.4093 89.398 24.4923C89.398 28.4312 86.7493 30.9771 84.9164 31.8253C87.1052 32.8211 89.9051 35.0653 89.9051 39.8047C89.9051 46.4356 85.2754 50.0267 78.8081 50.0267ZM77.6381 20.7027H70.714V28.8822H77.6381C80.641 28.8822 82.3213 27.2368 82.3213 24.7909C82.3213 22.3497 80.641 20.7027 77.6381 20.7027ZM78.0947 35.1161H70.7125V43.8452H78.0947C81.304 43.8452 82.8283 41.8503 82.8283 39.4552C82.8283 37.0617 81.304 35.1161 78.0947 35.1161ZM127.53 20.7043V50.0298H120.453V20.7027H110.986V14.5181H137V20.7027L127.53 20.7043Z" fill="#15192A"/>
</g>
<defs>
<clipPath id="clip0_43_80">
<rect width="137" height="54" fill="white"/>
</clipPath>
</defs>
</svg>
