<svg width="104" height="65" viewBox="0 0 104 65" fill="none" xmlns="http://www.w3.org/2000/svg">
<mask id="mask0_43_143" style="mask-type:luminance" maskUnits="userSpaceOnUse" x="0" y="0" width="104" height="65">
<path d="M104 0H0V65H104V0Z" fill="white"/>
</mask>
<g mask="url(#mask0_43_143)">
<path d="M100.75 45.2601L78.9637 7.46912C74.1875 -0.40748 62.5401 -0.491274 57.9316 7.80429L35.0559 47.1035C30.7826 54.3097 36.0614 63.3593 44.6086 63.3593H90.4433C99.074 63.3593 105.526 54.0582 100.75 45.2601Z" fill="#3156AA"/>
<path d="M69.3306 48.1929L67.99 45.8464C66.7332 43.6679 63.9678 38.9756 63.9678 38.9756L45.5335 6.96638C40.7573 -0.156061 29.445 -0.742615 24.6688 8.22328L3.2177 45.3436C-1.22335 53.1365 4.05564 63.2755 13.6919 63.3593H59.2754H78.7157H90.2792C78.4641 63.4432 74.6935 57.3264 69.3306 48.1929Z" fill="#1972E2"/>
<path d="M69.332 48.1906L67.9913 45.8444C66.7342 43.6656 63.9691 38.9733 63.9691 38.9733L52.0706 18.0249L34.9765 47.1851C30.7032 54.3913 35.9821 63.4409 44.5289 63.4409H59.1929H78.6331H90.2802C78.3816 63.3571 74.6948 57.3241 69.332 48.1906Z" fill="url(#paint0_linear_43_143)"/>
</g>
<defs>
<linearGradient id="paint0_linear_43_143" x1="28.8929" y1="33.9358" x2="81.8487" y2="53.5047" gradientUnits="userSpaceOnUse">
<stop stop-color="#264CA2" stop-opacity="0"/>
<stop offset="1" stop-color="#234588"/>
</linearGradient>
</defs>
</svg>
