<svg width="44" height="205" viewBox="0 0 44 205" fill="none" xmlns="http://www.w3.org/2000/svg">
<g filter="url(#filter0_d_1_68)">
<path d="M39.875 15.1328C39.875 17.1641 39.5469 19.1875 38.8906 21.2031C38.25 23.2344 37.375 24.8594 36.2656 26.0781C35.2344 27.2031 34.1094 27.7656 32.8906 27.7656C31.5156 27.7656 30.1875 27.2734 28.9062 26.2891C26.8281 24.6484 25.7891 22.9922 25.7891 21.3203C25.7891 20.6797 25.9844 20.0547 26.375 19.4453C26.7656 18.8516 26.9609 18.3047 26.9609 17.8047C26.9609 17.1641 26.7031 16.8438 26.1875 16.8438C25.6562 16.8438 25.2578 17.1797 24.9922 17.8516C24.7422 18.5234 24.5 19.375 24.2656 20.4062C23.7031 22.9688 22.9297 24.9766 21.9453 26.4297C20.4766 28.5703 18.2031 29.6406 15.125 29.6406C13.1875 29.6406 11.4531 29.1484 9.92188 28.1641C8.39062 27.1953 7.1875 25.6719 6.3125 23.5938C5.4375 21.5313 5 18.8438 5 15.5313C5 13.1406 5.29688 11.0469 5.89062 9.25C7.01562 5.84375 8.89062 3.35156 11.5156 1.77344C13.25 0.742188 15.0312 0.226563 16.8594 0.226563C19.3281 0.226563 21.125 1.46875 22.25 3.95313C22.875 5.3125 23.1875 6.53906 23.1875 7.63281C23.1875 8.82031 22.6484 9.82813 21.5703 10.6563C20.0078 11.8594 19.2266 13.1641 19.2266 14.5703C19.2266 15.3984 19.5391 15.8125 20.1641 15.8125C20.6953 15.8125 21.1562 15.4531 21.5469 14.7344C21.9375 14.0156 22.3438 13.1172 22.7656 12.0391C23.7188 9.58594 24.7266 7.6875 25.7891 6.34375C27.3359 4.39063 29.3672 3.41406 31.8828 3.41406C33.7422 3.41406 35.2578 3.88281 36.4297 4.82031C37.6172 5.75781 38.4844 7.09375 39.0312 8.82812C39.5938 10.5781 39.875 12.6797 39.875 15.1328ZM19.0391 44.7344C19.0391 45.5156 19.4688 46.1484 20.3281 46.6328C21.0156 47.0078 21.8594 47.1953 22.8594 47.1953C24 47.1953 24.9297 46.9141 25.6484 46.3516C26.1484 45.9609 26.3984 45.4219 26.3984 44.7344C26.3984 44.0156 26.0547 43.4297 25.3672 42.9766C24.6797 42.5234 23.7969 42.2969 22.7188 42.2969C21.5 42.2969 20.5234 42.5859 19.7891 43.1641C19.2891 43.5547 19.0391 44.0781 19.0391 44.7344ZM5 45.8359C5 40.8047 6.46094 37.0156 9.38281 34.4688C12.3047 31.9375 16.6094 30.6719 22.2969 30.6719C25.8438 30.6719 28.9063 31.2188 31.4844 32.3125C34.0781 33.4219 36.0781 35.1016 37.4844 37.3516C38.8906 39.6016 39.5938 42.4297 39.5938 45.8359C39.5938 49.2422 38.8906 52.0703 37.4844 54.3203C36.0781 56.5703 34.0781 58.25 31.4844 59.3594C28.9063 60.4688 25.8438 61.0234 22.2969 61.0234C18.8281 61.0234 15.8047 60.4688 13.2266 59.3594C10.6641 58.2656 8.64844 56.5938 7.17969 54.3438C5.72656 52.1094 5 49.2734 5 45.8359ZM5 77.0078C5 72.1328 6.60938 68.5234 9.82813 66.1797C12.7188 64.0703 16.7266 63.0156 21.8516 63.0156C27.1172 63.0156 31.3359 64.2578 34.5078 66.7422C37.8984 69.3984 39.5938 73.2109 39.5938 78.1797C39.5938 80.3672 39.3125 82.2891 38.75 83.9453C37.6406 87.1328 35.8359 89.4531 33.3359 90.9062C31.5859 91.9062 29.7891 92.4062 27.9453 92.4062C25.5078 92.4062 23.7266 91.1641 22.6016 88.6797C21.9922 87.3359 21.6875 86.1094 21.6875 85C21.6875 83.6406 22.3828 82.5469 23.7734 81.7188C24.2422 81.4219 24.6719 81.0703 25.0625 80.6641C25.3906 80.3047 25.5547 79.8516 25.5547 79.3047C25.5547 78.6797 25.3047 78.1719 24.8047 77.7812C24.0078 77.1562 22.9844 76.8438 21.7344 76.8438C20.7344 76.8438 19.9141 77.0469 19.2734 77.4531C18.5547 77.9219 18.1953 78.5391 18.1953 79.3047C18.1953 79.7109 18.3047 80.0859 18.5234 80.4297C18.8984 81.0078 19.0859 81.625 19.0859 82.2812C19.0859 83.9375 18.0469 85.5859 15.9688 87.2266C14.7031 88.2109 13.375 88.7031 11.9844 88.7031C10.7656 88.7031 9.64063 88.1484 8.60938 87.0391C7.5 85.8203 6.61719 84.3047 5.96094 82.4922C5.32031 80.6797 5 78.8516 5 77.0078ZM4.97656 102.203V101.969C4.97656 100.094 5.35156 98.5625 6.10156 97.375C6.88281 96.125 8.0625 95.3906 9.64063 95.1719C14.5781 94.5156 19.5938 94.1875 24.6875 94.1875C28.625 94.1875 31.6719 94.3828 33.8281 94.7734C35.9844 95.1641 37.4844 95.9062 38.3281 97C39.1719 98.1094 39.5938 99.7188 39.5938 101.828C39.5938 103.734 39.3359 105.203 38.8203 106.234C38.3047 107.281 37.6641 107.961 36.8984 108.273C36.1484 108.586 35.3828 108.742 34.6016 108.742C34.2109 108.742 33.7969 108.711 33.3594 108.648C30.6563 108.289 27.9297 108.109 25.1797 108.109C20.1172 108.109 15.4141 108.406 11.0703 109C10.7891 109.031 10.4922 109.047 10.1797 109.047C8.58594 109.047 7.35938 108.469 6.5 107.312C5.5 106 4.99219 104.297 4.97656 102.203ZM21.5 126.625C21.5 128.047 22.0391 128.758 23.1172 128.758C23.7734 128.758 24.3438 128.555 24.8281 128.148C25.3125 127.742 25.5547 127.25 25.5547 126.672C25.5547 126.156 25.3359 125.711 24.8984 125.336C24.4609 124.961 23.9453 124.773 23.3516 124.773C22.1172 124.773 21.5 125.391 21.5 126.625ZM4.97656 135.227C4.97656 133.008 5.44531 131.273 6.38281 130.023C7.32031 128.789 8.58594 128.172 10.1797 128.172H11.1172C11.8984 128.172 12.2891 127.664 12.2891 126.648C12.2891 125.711 11.8594 125.242 11 125.242C10.8594 125.242 10.6875 125.258 10.4844 125.289C10.1563 125.336 9.82813 125.359 9.5 125.359C7.67188 125.359 6.39844 124.625 5.67969 123.156C5.21094 122.219 4.97656 120.906 4.97656 119.219C4.97656 117.297 5.35938 115.844 6.125 114.859C6.90625 113.891 8.29688 113.234 10.2969 112.891C10.9063 112.781 11.4844 112.375 12.0313 111.672C12.9063 110.531 14.4453 109.961 16.6484 109.961C18.4766 109.961 19.8047 110.422 20.6328 111.344C20.9297 111.672 21.2109 111.898 21.4766 112.023C21.7578 112.164 22.1406 112.25 22.625 112.281C27.7188 112.609 31.7188 113.891 34.625 116.125C37.9375 118.688 39.5938 122.578 39.5938 127.797C39.5938 133.344 37.75 137.344 34.0625 139.797C30.9688 141.844 26.8203 142.867 21.6172 142.867C18.0078 142.867 14.0156 142.578 9.64063 142C8.0625 141.797 6.89063 141.086 6.125 139.867C5.35938 138.664 4.97656 137.117 4.97656 135.227ZM4.97656 154.773C4.97656 152.836 5.23438 151.273 5.75 150.086C6.26563 148.914 7.00781 148.023 7.97656 147.414C8.94531 146.82 10.1172 146.445 11.4922 146.289C15.8359 145.805 20.2344 145.562 24.6875 145.562C28.625 145.562 31.6719 145.758 33.8281 146.148C35.9844 146.539 37.4844 147.281 38.3281 148.375C39.1719 149.469 39.5938 151.078 39.5938 153.203C39.5938 155.109 39.3359 156.586 38.8203 157.633C38.3047 158.68 37.6563 159.352 36.875 159.648C36.1094 159.961 35.3438 160.117 34.5781 160.117C34.1875 160.117 33.5703 160.086 32.7266 160.023C27.7266 159.664 22.375 159.484 16.6719 159.484C15.3125 159.484 14.6328 159.953 14.6328 160.891C14.6328 161.234 14.6406 161.586 14.6563 161.945C14.6875 162.305 14.7031 162.633 14.7031 162.93C14.7031 164.273 14.375 165.289 13.7188 165.977C13.0781 166.68 11.9375 167.031 10.2969 167.031C8.46875 167.031 7.125 166.039 6.26563 164.055C5.40625 162.086 4.97656 158.992 4.97656 154.773ZM39.875 181.82C39.875 183.852 39.5469 185.875 38.8906 187.891C38.25 189.922 37.375 191.547 36.2656 192.766C35.2344 193.891 34.1094 194.453 32.8906 194.453C31.5156 194.453 30.1875 193.961 28.9063 192.977C26.8281 191.336 25.7891 189.68 25.7891 188.008C25.7891 187.367 25.9844 186.742 26.375 186.133C26.7656 185.539 26.9609 184.992 26.9609 184.492C26.9609 183.852 26.7031 183.531 26.1875 183.531C25.6563 183.531 25.2578 183.867 24.9922 184.539C24.7422 185.211 24.5 186.062 24.2656 187.094C23.7031 189.656 22.9297 191.664 21.9453 193.117C20.4766 195.258 18.2031 196.328 15.125 196.328C13.1875 196.328 11.4531 195.836 9.92188 194.852C8.39063 193.883 7.1875 192.359 6.3125 190.281C5.4375 188.219 5 185.531 5 182.219C5 179.828 5.29688 177.734 5.89063 175.938C7.01563 172.531 8.89063 170.039 11.5156 168.461C13.25 167.43 15.0313 166.914 16.8594 166.914C19.3281 166.914 21.125 168.156 22.25 170.641C22.875 172 23.1875 173.227 23.1875 174.32C23.1875 175.508 22.6484 176.516 21.5703 177.344C20.0078 178.547 19.2266 179.852 19.2266 181.258C19.2266 182.086 19.5391 182.5 20.1641 182.5C20.6953 182.5 21.1563 182.141 21.5469 181.422C21.9375 180.703 22.3438 179.805 22.7656 178.727C23.7188 176.273 24.7266 174.375 25.7891 173.031C27.3359 171.078 29.3672 170.102 31.8828 170.102C33.7422 170.102 35.2578 170.57 36.4297 171.508C37.6172 172.445 38.4844 173.781 39.0313 175.516C39.5938 177.266 39.875 179.367 39.875 181.82Z" fill="white"/>
</g>
<defs>
<filter id="filter0_d_1_68" x="0.976562" y="0.226562" width="42.8984" height="204.102" filterUnits="userSpaceOnUse" color-interpolation-filters="sRGB">
<feFlood flood-opacity="0" result="BackgroundImageFix"/>
<feColorMatrix in="SourceAlpha" type="matrix" values="0 0 0 0 0 0 0 0 0 0 0 0 0 0 0 0 0 0 127 0" result="hardAlpha"/>
<feOffset dy="4"/>
<feGaussianBlur stdDeviation="2"/>
<feComposite in2="hardAlpha" operator="out"/>
<feColorMatrix type="matrix" values="0 0 0 0 0 0 0 0 0 0 0 0 0 0 0 0 0 0 0.25 0"/>
<feBlend mode="normal" in2="BackgroundImageFix" result="effect1_dropShadow_1_68"/>
<feBlend mode="normal" in="SourceGraphic" in2="effect1_dropShadow_1_68" result="shape"/>
</filter>
</defs>
</svg>
