<svg width="214" height="193" viewBox="0 0 214 193" fill="none" xmlns="http://www.w3.org/2000/svg">
<path d="M195.563 0.833399C192.48 0.967479 189.652 1.85399 187.167 2.8334C184.871 3.73751 176.627 7.20247 163.5 12.7084C150.373 18.2143 132.978 25.5146 114.438 33.3126C77.3557 48.9085 35.6852 66.4521 14.3333 75.4376C13.6001 75.7431 10.6223 76.6548 7.3333 79.1668C4.03676 81.6846 0.375 87.1491 0.375 93.1251C0.375 97.9459 2.78151 102.856 5.68754 105.667C8.59346 108.478 11.5386 109.792 14.0001 110.771V110.75C22.3204 114.065 47.1674 124.008 53.0834 126.375C55.1819 132.663 64.1904 159.584 66.3334 166.354H66.3126C67.8274 171.146 69.3039 174.269 71.3543 176.875C72.3795 178.178 73.6033 179.359 75.1043 180.292C75.6802 180.65 76.318 180.927 76.9585 181.188C77.0478 181.225 77.1397 181.235 77.2293 181.271L76.9793 181.208C77.165 181.283 77.3317 181.393 77.521 181.458C77.8293 181.565 78.0432 181.561 78.4584 181.646C79.9198 182.096 81.3786 182.396 82.7293 182.396C88.5278 182.396 92.0834 179.25 92.0834 179.25L92.3126 179.083L117.354 157.896L148.021 186.271C148.581 187.062 152.969 193 163.125 193C169.185 193 173.977 190.001 177.042 186.854C180.107 183.708 182.017 180.489 182.875 176.125L182.896 176.104C183.581 172.582 212.938 25.1667 212.938 25.1667L212.875 25.4168C213.789 21.3384 214.059 17.3944 212.98 13.3751C211.9 9.35575 208.987 5.4334 205.48 3.37505C201.972 1.31671 198.645 0.699319 195.563 0.833399ZM191.354 24.1875C190.194 30.0119 163.896 162.129 162.271 170.417L117.979 129.438L88.0418 154.75L96.3334 122.333C96.3334 122.333 153.534 64.4332 156.979 61.0625C159.753 58.3639 160.333 57.4178 160.333 56.4792C160.333 55.2312 159.691 54.3334 158.208 54.3334C156.875 54.3334 155.064 55.611 154.104 56.2084C141.905 63.8137 89.9471 93.4233 64.3958 107.958C62.8581 107.342 39.7722 98.0715 27.3333 93.1041C49.4588 83.7921 87.3857 67.8352 122.708 52.9791C141.246 45.1824 158.636 37.8757 171.75 32.375C182.821 27.7316 188.595 25.3276 191.354 24.1875ZM161.958 171.938H161.979C161.979 171.94 161.959 171.997 161.958 172C161.972 171.931 161.948 171.992 161.958 171.938Z" fill="#FFFDFD"/>
</svg>
