<svg width="55" height="50" viewBox="0 0 55 50" fill="none" xmlns="http://www.w3.org/2000/svg">
<path d="M50.3218 0.207052C49.5271 0.241619 48.7979 0.470172 48.1572 0.722677C47.5654 0.955767 45.44 1.84908 42.0557 3.26857C38.6714 4.68807 34.1868 6.57017 29.4067 8.58058C19.8466 12.6014 9.10341 17.1244 3.59862 19.4409C3.40959 19.5197 2.64187 19.7547 1.79394 20.4024C0.944048 21.0515 0 22.4603 0 24.001C0 25.2439 0.620428 26.5097 1.36964 27.2344C2.11882 27.9591 2.87812 28.2979 3.51271 28.5503V28.545C5.6578 29.3995 12.0637 31.9629 13.5889 32.5733C14.1299 34.1945 16.4524 41.135 17.0049 42.8804H16.9995C17.3901 44.1157 17.7707 44.9208 18.2994 45.5928C18.5637 45.9288 18.8792 46.2333 19.2661 46.4737C19.4146 46.5659 19.579 46.6374 19.7442 46.7046C19.7672 46.7144 19.7909 46.7168 19.814 46.7261L19.7495 46.71C19.7974 46.7292 19.8404 46.7576 19.8892 46.7744C19.9687 46.8018 20.0238 46.8009 20.1309 46.8228C20.5076 46.9387 20.8837 47.0161 21.232 47.0161C22.7269 47.0161 23.6436 46.2051 23.6436 46.2051L23.7027 46.1621L30.1587 40.6997L38.065 48.0152C38.2094 48.2191 39.3407 49.75 41.959 49.75C43.5214 49.75 44.7566 48.9767 45.5469 48.1656C46.3372 47.3544 46.8295 46.5244 47.0509 45.3994L47.0562 45.3941C47.2327 44.4861 54.8014 6.48049 54.8014 6.48049L54.7852 6.54495C55.0208 5.49349 55.0904 4.47668 54.8121 3.44045C54.5338 2.40422 53.7828 1.39299 52.8785 0.862322C51.9742 0.331655 51.1165 0.172484 50.3218 0.207052ZM49.2368 6.22804C48.9377 7.72962 42.1578 41.7912 41.7388 43.9277L30.3199 33.3628L22.6016 39.8887L24.7393 31.5313C24.7393 31.5313 39.4863 16.6039 40.3746 15.7349C41.0896 15.0391 41.2393 14.7952 41.2393 14.5532C41.2393 14.2315 41.0737 14 40.6914 14C40.3477 14 39.8808 14.3294 39.6333 14.4834C36.4883 16.4442 23.0928 24.0779 16.5054 27.8252C16.1089 27.6662 10.1571 25.2763 6.95019 23.9956C12.6544 21.5949 22.4324 17.481 31.5391 13.6509C36.3183 11.6408 40.8015 9.75701 44.1826 8.33886C47.0367 7.14176 48.5255 6.52196 49.2368 6.22804ZM41.6582 44.3198H41.6636C41.6634 44.3205 41.6585 44.3351 41.6582 44.336C41.6617 44.3182 41.6556 44.3338 41.6582 44.3198Z" fill="#222222"/>
</svg>
