<svg width="256" height="256" viewBox="0 0 256 256" fill="none" xmlns="http://www.w3.org/2000/svg">
<path d="M219.477 210.357L146.389 109.152L194.944 49.3973C198.667 44.8213 197.963 38.1013 193.387 34.3893C188.832 30.688 182.101 31.3707 178.389 35.9467L133.451 91.2534L96.608 40.224C92.8747 35.0613 86.8907 32 80.5227 32H43.4986C36.48 32 32.416 39.9573 36.5226 45.6427L99.5733 132.939L39.7226 206.603C36.0106 211.179 36.704 217.899 41.28 221.611C43.2533 223.221 45.632 224 48 224C51.104 224 54.176 222.656 56.288 220.064L112.512 150.859L159.403 215.776C163.136 220.939 169.109 224 175.477 224H212.501C219.52 224 223.584 216.043 219.477 210.357Z" fill="#FFFDFD"/>
</svg>
