<svg width="49" height="50" viewBox="0 0 49 50" fill="none" xmlns="http://www.w3.org/2000/svg">
<path d="M47.5915 46.2328L28.7485 20.1408L41.2665 4.73525C42.2263 3.5555 42.0448 1.823 40.865 0.866C39.6908 -0.0882502 37.9555 0.0877497 36.9985 1.2675L25.4128 15.5263L15.9143 2.37025C14.9518 1.03925 13.409 0.25 11.7673 0.25H2.22203C0.412525 0.25 -0.635226 2.3015 0.423525 3.76725L16.6788 26.2733L1.24852 45.2648C0.291525 46.4445 0.470274 48.177 1.65002 49.134C2.15877 49.5493 2.77203 49.75 3.38253 49.75C4.18278 49.75 4.97478 49.4035 5.51928 48.7353L20.0145 30.8933L32.1035 47.6298C33.066 48.9608 34.606 49.75 36.2478 49.75H45.793C47.6025 49.75 48.6503 47.6985 47.5915 46.2328Z" fill="#222222"/>
</svg>
